<?xml version="1.0" encoding="UTF-8" standalone="no"?>
<svg
   xmlns:dc="http://purl.org/dc/elements/1.1/"
   xmlns:cc="http://creativecommons.org/ns#"
   xmlns:rdf="http://www.w3.org/1999/02/22-rdf-syntax-ns#"
   xmlns:svg="http://www.w3.org/2000/svg"
   xmlns="http://www.w3.org/2000/svg"
   viewBox="0 0 557.33331 182.66667"
   height="182.66667"
   width="557.33331"
   xml:space="preserve"
   id="svg2"
   version="1.1"><metadata
     id="metadata8"><rdf:RDF><cc:Work
         rdf:about=""><dc:format>image/svg+xml</dc:format><dc:type
           rdf:resource="http://purl.org/dc/dcmitype/StillImage" /></cc:Work></rdf:RDF></metadata><defs
     id="defs6" /><g
     transform="matrix(1.3333333,0,0,-1.3333333,0,182.66667)"
     id="g10"><g
       transform="scale(0.1)"
       id="g12"><path
         id="path14"
         style="fill:#002b61;fill-opacity:1;fill-rule:evenodd;stroke:none"
         d="m 3243.67,573.871 -240.9,67.258 -271.6,309.422 c -10.94,10.07 -22.65,11.289 -35.23,3.789 l -116.33,-83.051 -493.67,491.131 c -5.9,5.04 -12.39,7.58 -19.49,7.58 -7.11,-0.43 -13.4,-3.4 -18.87,-8.83 L 1705.51,984.488 c 142.5,-137.929 304.33,-240 485.43,-306.207 181.13,-66.293 352.15,-109.222 513.16,-128.902 160.55,-19.731 281.49,-28.758 362.85,-27.109 h 33.95 c 25.58,0.46 38.55,0.66 39.02,0.66 l -1.91,-0.66 h 98.75 c 14.22,0.851 22.81,8.429 25.78,22.652 1.21,14.687 -5.08,24.34 -18.87,28.949" /><path
         id="path16"
         style="fill:#002b61;fill-opacity:1;fill-rule:evenodd;stroke:none"
         d="m 1662.7,1019.73 -24.5,21.36 c -12.97,8.79 -25.15,8.21 -36.44,-1.87 L 1217.5,635.469 988.629,573.871 c -13.859,-4.609 -20.348,-14.262 -19.527,-28.949 3.359,-14.223 12.148,-21.992 26.449,-23.281 H 2172.07 c -104.34,55.781 -193.2,119.918 -266.6,192.418 -73.36,72.543 -130.59,138.171 -171.68,196.882 -40.67,58.668 -64.34,94.919 -71.09,108.789" /><path
         id="path18"
         style="fill:#4c82c2;fill-opacity:1;fill-rule:evenodd;stroke:none"
         d="m 2988.36,568.789 -277.34,320.742 -47.15,-108.121 80.47,-150.32 -674.11,659.65 89.26,-213.79 -126.33,-72.3 279.18,-163.521 -392.38,19.492 c 142.5,-93.473 295.74,-160.973 459.61,-202.5 163.52,-41.519 304.41,-67.301 422.62,-77.301 118.2,-9.691 180.27,-13.672 186.17,-12.031" /><path
         id="path20"
         style="fill:#4c82c2;fill-opacity:1;fill-rule:evenodd;stroke:none"
         d="m 2018.63,568.238 c -71.68,51.141 -135.39,108.321 -191.13,171.641 -55.31,63.711 -99.14,119.031 -131.45,166.019 -31.87,47.34 -48,72.301 -48.43,74.801 l -22.66,23.281 -13.79,-231.359 -69.8,31.988 -138.99,-236.371 h 616.25" /><path
         id="path22"
         style="fill:#002d62;fill-opacity:1;fill-rule:nonzero;stroke:none"
         d="m 8.32031,76.4492 v 99.6798 c 0,14.891 -0.62109,27.351 -1.87109,37.351 -1.17969,10.071 -3.28906,20.54 -6.4101575,31.399 H 40.3516 c 43.0078,0 77.1094,-10.899 102.3474,-32.649 25.192,-21.679 37.813,-51.058 37.813,-88.128 0,-35.7426 -11.723,-64.0629 -35.16,-85.0004 C 121.91,18.1602 90.1211,7.69922 50.0391,7.69922 H 0.199219 C 3.19922,18.1992 5.26953,28.5195 6.44922,38.6289 c 1.25,10.082 1.87109,22.6992 1.87109,37.8203 z M 44.4102,33.6289 c 29.4609,0 53.1679,7.9727 71.1018,23.9102 18.008,15.9414 27.027,36.9101 27.027,62.9729 0,29.57 -8.559,53.359 -25.629,71.398 -16.9881,18.012 -39.5311,27.039 -67.6483,27.039 H 44.4102 Z M 227.891,76.4492 v 99.6798 c 0,14.891 -0.621,27.351 -1.871,37.351 -1.25,10.071 -3.442,20.54 -6.571,31.399 h 52.5 c -3.039,-10.617 -5.148,-20.93 -6.398,-30.93 -1.172,-10 -1.723,-22.617 -1.723,-37.82 V 76.4492 c 0,-15 0.551,-27.5781 1.723,-37.6601 1.25,-10 3.429,-20.3907 6.558,-31.08988 h -52.5 c 3.012,10.49998 5.161,20.82028 6.411,30.92968 1.25,10 1.871,22.582 1.871,37.8203 z" /><path
         id="path24"
         style="fill:#002d62;fill-opacity:1;fill-rule:nonzero;stroke:none"
         d="m 337.852,176.129 c -5.622,15 -11.332,27.5 -17.032,37.5 -5.742,10.082 -12.968,20.512 -21.718,31.25 h 67.187 c -1.988,-5.93 -2.461,-13.981 -1.41,-24.059 1.019,-10 3.48,-20.308 7.351,-30.941 l 42.5,-121.7188 46.559,121.7188 c 3.941,9.769 6.641,20 8.121,30.633 1.449,10.699 1.328,18.828 -0.308,24.367 h 60 c -4.614,-5.309 -9.493,-13.039 -14.692,-23.117 -5.23,-10.121 -11.988,-25.313 -20.308,-45.633 L 427.07,7.69922 h -28.75 z" /><path
         id="path26"
         style="fill:#002d62;fill-opacity:1;fill-rule:nonzero;stroke:none"
         d="m 559.488,7.69922 c 3.012,10.49998 5.082,20.82028 6.25,30.92968 1.25,10.082 1.883,22.6992 1.883,37.8203 v 99.6798 c 0,14.891 -0.633,27.351 -1.883,37.351 -1.168,10.071 -3.277,20.54 -6.398,31.399 h 130.93 l -9.059,-19.367 -9.223,-19.532 c -9.179,4.879 -18.117,8.282 -26.867,10.149 -8.75,1.961 -19.34,2.973 -31.723,2.973 h -9.687 v -77.653 h 78.277 l -21.867,-38.437 c -7.742,4.687 -15.711,7.968 -23.91,9.84 -8.242,1.949 -18.672,2.968 -31.25,2.968 h -1.25 V 33.7891 c 21.328,0.5117 38.949,2.0703 52.809,4.6914 18.32,3.3203 34.609,8.9804 48.91,17.0312 l -9.84,-23.9101 -10,-23.90238 z" /><path
         id="path28"
         style="fill:#002d62;fill-opacity:1;fill-rule:nonzero;stroke:none"
         d="m 738.32,76.4492 v 99.6798 c 0,14.891 -0.621,27.351 -1.871,37.351 -1.179,10.071 -3.289,20.54 -6.41,31.399 h 44.223 c 30.187,0 53.468,-6.09 69.84,-18.277 16.328,-12.192 24.527,-29.532 24.527,-52.032 0,-20.23 -9.059,-36.48 -27.18,-48.75 -5.75,-3.75 -12,-7.109 -18.75,-10 L 839.73,90.0391 c 8.2,-11.9883 17.258,-24.0196 27.18,-36.0899 9.891,-12.1094 23.32,-27.5 40.32,-46.24998 H 865.039 C 852.852,18.0117 838.551,32.7695 822.23,52.0703 805.98,71.3281 792.109,89.7305 780.66,107.23 l -6.25,9.532 V 76.4492 c 0,-15 0.551,-27.5781 1.719,-37.6601 1.25,-10 3.441,-20.3907 6.57,-31.08988 h -52.5 c 3,10.49998 5.153,20.82028 6.403,30.92968 1.128,10.082 1.718,22.6992 1.718,37.8203 z m 36.09,49.2108 c 15.629,0.82 28.32,5.36 38.129,13.602 11.25,9.258 16.871,21.437 16.871,36.558 0,13.828 -5.308,25 -15.93,33.442 -10,7.808 -23.05,12.07 -39.07,12.808 z" /><path
         id="path30"
         style="fill:#002d62;fill-opacity:1;fill-rule:nonzero;stroke:none"
         d="m 1038.32,198.16 c -6.99,7.5 -14.02,12.969 -21.09,16.41 -7.11,3.442 -14.85,5.16 -23.281,5.16 -9.929,0 -18.129,-3.05 -24.687,-9.07 -6.492,-5.93 -9.692,-13.39 -9.692,-22.34 0,-7.73 2.5,-14.691 7.5,-20.941 5,-6.168 13.95,-13.359 26.879,-21.559 19.571,-12.5 33.321,-24.179 41.251,-35 8,-10.9411 12.03,-23.6716 12.03,-38.1208 0,-19.6875 -7,-36.0586 -20.94,-49.0703 C 1012.3,10.5898 994.801,4.10156 973.789,4.10156 c -10.551,0 -19.527,0.77735 -27.027,2.34766 -7.422,1.44141 -16.102,4.24998 -26.102,8.42968 v 44.2227 c 7.192,-9.0625 14.692,-15.7422 22.5,-20 7.82,-4.1797 16.328,-6.25 25.629,-6.25 11.641,0 21.332,3.3203 29.063,10 7.698,6.7578 11.558,15.1992 11.558,25.3086 0,8.75 -2.61,16.4882 -7.81,23.289 -5.12,6.6406 -14.33,14.2108 -27.651,22.6528 -19.179,12.07 -32.66,23.32 -40.469,33.75 -7.82,10.386 -11.718,22.347 -11.718,35.777 0,18.519 7.066,33.953 21.25,46.25 14.258,12.391 32.066,18.601 53.437,18.601 8.511,0 16.131,-0.781 22.811,-2.351 6.76,-1.481 13.12,-3.828 19.06,-7.027 z" /><path
         id="path32"
         style="fill:#002d62;fill-opacity:1;fill-rule:nonzero;stroke:none"
         d="m 1091.29,76.4492 v 99.6798 c 0,14.891 -0.63,27.351 -1.88,37.351 -1.25,10.071 -3.43,20.54 -6.56,31.399 h 52.5 c -3.05,-10.617 -5.15,-20.93 -6.4,-30.93 -1.18,-10 -1.72,-22.617 -1.72,-37.82 V 76.4492 c 0,-15 0.54,-27.5781 1.72,-37.6601 1.25,-10 3.43,-20.3907 6.56,-31.08988 h -52.5 c 3.01,10.49998 5.15,20.82028 6.4,30.92968 1.25,10 1.88,22.582 1.88,37.8203 z" /><path
         id="path34"
         style="fill:#002d62;fill-opacity:1;fill-rule:nonzero;stroke:none"
         d="m 1187.03,76.4492 v 99.6798 c 0,14.891 -0.62,27.351 -1.87,37.351 -1.18,10.071 -3.28,20.54 -6.41,31.399 h 129.69 l -9.06,-19.367 -9.22,-19.532 c -9.3,4.879 -18.28,8.282 -27.04,10.149 -8.74,1.961 -19.29,2.973 -31.56,2.973 h -8.59 v -77.653 h 76.87 l -21.87,-38.437 c -7.74,4.687 -15.7,7.968 -23.91,9.84 -8.24,1.949 -18.59,2.968 -31.09,2.968 V 76.4492 c 0,-15 0.62,-27.5781 1.87,-37.6601 1.25,-10 3.44,-20.3907 6.57,-31.08988 h -52.5 c 3,10.49998 5.07,20.82028 6.25,30.92968 1.25,10.082 1.87,22.6992 1.87,37.8203 z" /><path
         id="path36"
         style="fill:#002d62;fill-opacity:1;fill-rule:nonzero;stroke:none"
         d="m 1348.59,76.4492 v 99.6798 c 0,14.891 -0.62,27.351 -1.87,37.351 -1.25,10.071 -3.44,20.54 -6.56,31.399 h 52.5 c -3.05,-10.617 -5.16,-20.93 -6.41,-30.93 -1.17,-10 -1.72,-22.617 -1.72,-37.82 V 76.4492 c 0,-15 0.55,-27.5781 1.72,-37.6601 1.25,-10 3.44,-20.3907 6.56,-31.08988 h -52.5 c 3.01,10.49998 5.16,20.82028 6.41,30.92968 1.25,10 1.87,22.582 1.87,37.8203 z" /><path
         id="path38"
         style="fill:#002d62;fill-opacity:1;fill-rule:nonzero;stroke:none"
         d="m 1439.84,7.69922 c 3.01,10.49998 5.08,20.82028 6.25,30.92968 1.25,10.082 1.88,22.6992 1.88,37.8203 v 99.6798 c 0,14.891 -0.63,27.351 -1.88,37.351 -1.17,10.071 -3.28,20.54 -6.4,31.399 h 130.93 l -9.06,-19.367 -9.22,-19.532 c -9.18,4.879 -18.12,8.282 -26.87,10.149 -8.75,1.961 -19.34,2.973 -31.72,2.973 h -9.69 v -77.653 h 78.28 l -21.87,-38.437 c -7.74,4.687 -15.7,7.968 -23.91,9.84 -8.24,1.949 -18.67,2.968 -31.25,2.968 h -1.25 V 33.7891 c 21.33,0.5117 38.95,2.0703 52.82,4.6914 18.32,3.3203 34.6,8.9804 48.9,17.0312 l -9.84,-23.9101 -10,-23.90238 z" /><path
         id="path40"
         style="fill:#002d62;fill-opacity:1;fill-rule:nonzero;stroke:none"
         d="m 1615.23,76.4492 v 99.6798 c 0,14.891 -0.62,27.351 -1.87,37.351 -1.17,10.071 -3.28,20.54 -6.41,31.399 h 40.32 c 43,0 77.11,-10.899 102.34,-32.649 25.19,-21.679 37.81,-51.058 37.81,-88.128 0,-35.7426 -11.72,-64.0629 -35.15,-85.0004 -23.44,-20.9414 -55.24,-31.40238 -95.32,-31.40238 h -49.84 c 3.01,10.49998 5.08,20.82028 6.25,30.92968 1.25,10.082 1.87,22.6992 1.87,37.8203 z m 36.1,-42.8203 c 29.45,0 53.16,7.9727 71.09,23.9102 18.01,15.9414 27.03,36.9101 27.03,62.9729 0,29.57 -8.55,53.359 -25.62,71.398 -16.99,18.012 -39.53,27.039 -67.66,27.039 h -4.84 z" /><path
         id="path42"
         style="fill:#002d62;fill-opacity:1;fill-rule:nonzero;stroke:none"
         d="m 1931.95,76.4492 v 99.6798 c 0,14.891 -0.62,27.351 -1.87,37.351 -1.25,10 -3.44,20.469 -6.56,31.399 h 52.5 c -3.05,-10.617 -5.16,-21.008 -6.41,-31.09 -1.17,-10 -1.72,-22.578 -1.72,-37.66 v -32.34 h 100.78 v 32.34 c 0,14.891 -0.62,27.351 -1.87,37.351 -1.18,10.071 -3.28,20.54 -6.41,31.399 h 52.5 c -3.05,-10.617 -5.16,-21.008 -6.41,-31.09 -1.17,-10 -1.71,-22.578 -1.71,-37.66 V 76.4492 c 0,-15 0.54,-27.5781 1.71,-37.6601 1.25,-10 3.44,-20.3907 6.57,-31.08988 h -52.5 c 3,10.49998 5.07,20.82028 6.25,30.92968 1.25,10.082 1.87,22.6992 1.87,37.8203 V 113.48 H 1967.89 V 76.4492 c 0,-15 0.55,-27.5781 1.72,-37.6601 1.25,-10 3.44,-20.3907 6.56,-31.08988 h -52.5 c 3.01,10.49998 5.16,20.82028 6.41,30.92968 1.25,10.082 1.87,22.6992 1.87,37.8203 z" /><path
         id="path44"
         style="fill:#002d62;fill-opacity:1;fill-rule:nonzero;stroke:none"
         d="m 2265.66,4.10156 c -33.55,0 -61.4,11.75784 -83.59,35.30864 -22.19,23.5195 -33.28,53.1289 -33.28,88.7498 0,34.461 11.8,63.129 35.47,85.942 23.75,22.886 53.36,34.378 88.9,34.378 33.64,0 61.57,-11.839 83.75,-35.468 22.19,-23.563 33.29,-53.133 33.29,-88.75 0,-34.3831 -11.84,-63.0511 -35.47,-85.9417 -23.68,-22.8086 -53.36,-34.21874 -89.07,-34.21874 z m 7.5,28.75004 c 22.39,0 40.94,8.1289 55.63,24.3789 14.76,16.3203 22.19,36.75 22.19,61.2495 0,29.059 -8.13,53.161 -24.38,72.34 -16.17,19.262 -36.48,28.91 -60.94,28.91 -22.18,0 -40.7,-8.21 -55.46,-24.531 -14.81,-16.25 -22.19,-36.679 -22.19,-61.25 0,-28.988 8.04,-53.0896 24.22,-72.3474 16.25,-19.1797 36.56,-28.75 60.93,-28.75 z" /><path
         id="path46"
         style="fill:#002d62;fill-opacity:1;fill-rule:nonzero;stroke:none"
         d="m 2425.74,7.69922 c 3.13,10.49998 5.24,20.82028 6.41,30.92968 1.25,10.082 1.87,22.6992 1.87,37.8203 v 99.6798 c 0,14.891 -0.62,27.351 -1.87,37.351 -1.17,10.071 -3.28,20.54 -6.41,31.399 h 52.5 c -3.04,-10.617 -5.15,-20.93 -6.4,-30.93 -1.25,-10 -1.88,-22.617 -1.88,-37.82 V 34.1016 c 17.89,0.6289 32.89,2.0703 45,4.3789 18.32,3.3203 34.61,8.9804 48.91,17.0312 l -9.85,-23.9101 -10,-23.90238 z" /><path
         id="path48"
         style="fill:#002d62;fill-opacity:1;fill-rule:nonzero;stroke:none"
         d="m 2599.14,76.4492 v 99.6798 c 0,14.891 -0.62,27.351 -1.87,37.351 -1.18,10.071 -3.29,20.54 -6.41,31.399 h 40.31 c 43.01,0 77.11,-10.899 102.35,-32.649 25.19,-21.679 37.81,-51.058 37.81,-88.128 0,-35.7426 -11.72,-64.0629 -35.16,-85.0004 -23.44,-20.9414 -55.23,-31.40238 -95.31,-31.40238 h -49.84 c 3,10.49998 5.07,20.82028 6.25,30.92968 1.25,10.082 1.87,22.6992 1.87,37.8203 z m 36.09,-42.8203 c 29.46,0 53.17,7.9727 71.1,23.9102 18.01,15.9414 27.03,36.9101 27.03,62.9729 0,29.57 -8.56,53.359 -25.63,71.398 -16.99,18.012 -39.53,27.039 -67.65,27.039 h -4.85 z" /><path
         id="path50"
         style="fill:#002d62;fill-opacity:1;fill-rule:nonzero;stroke:none"
         d="m 2818.67,76.4492 v 99.6798 c 0,14.891 -0.62,27.351 -1.87,37.351 -1.25,10.071 -3.44,20.54 -6.57,31.399 h 52.5 c -3.04,-10.617 -5.15,-20.93 -6.4,-30.93 -1.17,-10 -1.72,-22.617 -1.72,-37.82 V 76.4492 c 0,-15 0.55,-27.5781 1.72,-37.6601 1.25,-10 3.44,-20.3907 6.56,-31.08988 h -52.5 c 3.01,10.49998 5.16,20.82028 6.41,30.92968 1.25,10 1.87,22.582 1.87,37.8203 z" /><path
         id="path52"
         style="fill:#002d62;fill-opacity:1;fill-rule:nonzero;stroke:none"
         d="m 2953.2,76.4492 c 0,-15 0.55,-27.5781 1.72,-37.6601 1.25,-10 3.44,-20.3907 6.56,-31.08988 h -48.28 c 3.01,10.49998 5.08,20.82028 6.25,30.92968 1.25,10.082 1.88,22.6992 1.88,37.8203 V 209.879 c -5.31,7.07 -9.92,12.891 -13.75,17.5 -8.36,10.082 -13.83,15.941 -16.41,17.5 h 56.25 c 6.56,-11.867 12.81,-22.418 18.75,-31.559 6.02,-9.058 13.44,-19.179 22.19,-30.308 L 3078.67,65.5117 V 176.129 c 0,14.891 -0.62,27.351 -1.87,37.351 -1.18,10.071 -3.28,20.54 -6.41,31.399 h 48.28 c -3.05,-10.617 -5.15,-21.008 -6.4,-31.09 -1.25,-10 -1.88,-22.578 -1.88,-37.66 V 64.5703 c 0,-11.5586 0.7,-22.8906 2.19,-33.9101 1.56,-10.9297 3.47,-18.5899 5.78,-22.96098 h -48.28 c -0.55,3.42968 -3.44,9.53128 -8.75,18.28128 -5.31,8.75 -11.56,17.6914 -18.75,26.8711 L 2953.2,169.73 Z" /><path
         id="path54"
         style="fill:#002d62;fill-opacity:1;fill-rule:nonzero;stroke:none"
         d="m 3266.48,4.10156 c -33.43,0 -61.32,11.09764 -83.59,33.27734 -22.3,22.1914 -33.44,50.043 -33.44,83.6011 0,36.559 12.23,66.911 36.72,91.09 24.57,24.262 55.35,36.41 92.35,36.41 11.25,0 20.97,-0.75 29.21,-2.191 8.21,-1.488 18.48,-4.301 30.79,-8.437 v -39.223 c -11.88,7.82 -22.9,13.281 -32.97,16.41 -10,3.121 -21.64,4.691 -34.85,4.691 -23.43,0 -42.97,-8.71 -58.59,-26.101 -15.63,-17.418 -23.44,-39.289 -23.44,-65.617 0,-27.192 7.23,-49.8518 21.72,-67.9729 14.57,-18.1289 32.73,-27.1875 54.53,-27.1875 h 0.16 c 17.5,0 33.98,2.7382 49.53,8.2773 v 16.5703 c 0,14.7617 -0.63,27.2227 -1.88,37.3399 -1.17,10.0819 -3.28,20.5509 -6.4,31.4099 h 52.5 c -3.05,-10.629 -5.16,-21.019 -6.41,-31.0974 -1.17,-10 -1.72,-22.5821 -1.72,-37.6524 v -4.3789 c 0,-7.6211 0.24,-13.9805 0.78,-19.0586 0.63,-5 1.72,-10.1211 3.29,-15.3125 -25.86,-9.92967 -55.32,-14.84764 -88.44,-14.84764 z" /><path
         id="path56"
         style="fill:#002d62;fill-opacity:1;fill-rule:nonzero;stroke:none"
         d="m 3515.27,198.16 c -6.99,7.5 -14.02,12.969 -21.09,16.41 -7.11,3.442 -14.84,5.16 -23.28,5.16 -9.92,0 -18.13,-3.05 -24.69,-9.07 -6.48,-5.93 -9.69,-13.39 -9.69,-22.34 0,-7.73 2.5,-14.691 7.5,-20.941 5,-6.168 13.95,-13.359 26.88,-21.559 19.57,-12.5 33.32,-24.179 41.25,-35 8.01,-10.9411 12.03,-23.6716 12.03,-38.1208 0,-19.6875 -6.99,-36.0586 -20.94,-49.0703 -13.98,-13.0391 -31.48,-19.52734 -52.5,-19.52734 -10.54,0 -19.53,0.77735 -27.03,2.34766 -7.42,1.44141 -16.09,4.24998 -26.09,8.42968 v 44.2227 c 7.18,-9.0625 14.68,-15.7422 22.5,-20 7.81,-4.1797 16.33,-6.25 25.62,-6.25 11.64,0 21.33,3.3203 29.06,10 7.7,6.7578 11.57,15.1992 11.57,25.3086 0,8.75 -2.62,16.4882 -7.82,23.289 -5.11,6.6406 -14.33,14.2108 -27.65,22.6528 -19.18,12.07 -32.66,23.32 -40.47,33.75 -7.81,10.386 -11.72,22.347 -11.72,35.777 0,18.519 7.07,33.953 21.25,46.25 14.26,12.391 32.07,18.601 53.44,18.601 8.51,0 16.13,-0.781 22.81,-2.351 6.76,-1.481 13.13,-3.828 19.06,-7.027 z" /><path
         id="path58"
         style="fill:#002d62;fill-opacity:1;fill-rule:nonzero;stroke:none"
         d="m 3702.77,76.4492 c 0,-15 0.55,-27.5781 1.72,-37.6601 1.25,-10 3.44,-20.3907 6.56,-31.08988 h -48.28 c 3.01,10.49998 5.08,20.82028 6.25,30.92968 1.25,10.082 1.88,22.6992 1.88,37.8203 V 209.879 c -5.31,7.07 -9.92,12.891 -13.75,17.5 -8.36,10.082 -13.83,15.941 -16.41,17.5 h 56.25 c 6.56,-11.867 12.81,-22.418 18.75,-31.559 6.02,-9.058 13.44,-19.179 22.19,-30.308 L 3828.24,65.5117 V 176.129 c 0,14.891 -0.62,27.351 -1.87,37.351 -1.17,10.071 -3.28,20.54 -6.41,31.399 h 48.28 c -3.04,-10.617 -5.15,-21.008 -6.4,-31.09 -1.25,-10 -1.88,-22.578 -1.88,-37.66 V 64.5703 c 0,-11.5586 0.7,-22.8906 2.19,-33.9101 1.56,-10.9297 3.47,-18.5899 5.78,-22.96098 h -48.28 c -0.55,3.42968 -3.44,9.53128 -8.75,18.28128 -5.31,8.75 -11.56,17.6914 -18.75,26.8711 L 3702.77,169.73 Z" /><path
         id="path60"
         style="fill:#002d62;fill-opacity:1;fill-rule:nonzero;stroke:none"
         d="M 3959.34,7.69922 3914.49,176.129 c -5.31,19.691 -9.92,34.57 -13.75,44.691 -3.75,10.078 -7.73,18.129 -11.87,24.059 h 57.97 c -2.62,-5.93 -3.91,-13.981 -3.91,-24.059 0.08,-10.121 1.48,-20.429 4.22,-30.941 l 28.59,-115.1485 57.35,174.8395 56.71,-174.2184 28.91,114.5274 c 2.58,9.57 3.95,19.691 4.06,30.32 0.08,10.699 -1.09,18.942 -3.59,24.68 h 58.12 c -4.06,-5.859 -7.96,-13.828 -11.71,-23.899 -3.75,-10 -8.36,-24.96 -13.75,-44.851 l -45,-168.42978 h -28.75 L 4032.3,143.949 3988.09,7.69922 Z" /></g></g></svg>